<svg id="Layer_1" data-name="Layer 1" xmlns="http://www.w3.org/2000/svg" viewBox="0 0 427.2 114"><defs><style>.cls-1,.cls-8{fill:#fcbf49;}.cls-2,.cls-7{fill:#f77f00;}.cls-3,.cls-6{fill:#d62828;}.cls-4,.cls-5{fill:#003049;}.cls-5,.cls-6,.cls-7,.cls-8{fill-rule:evenodd;}</style></defs><path class="cls-1" d="M179.8,31.6a121.76,121.76,0,0,1-8.8,8.8,17.22,17.22,0,0,0-10.5-3.5c-10.5,0-17.6,8.3-17.6,20.2v1.7a107.62,107.62,0,0,1-12.7,4.9,36.3,36.3,0,0,1-.6-6.7c0-17.9,13.5-31.8,30.7-31.8A32.76,32.76,0,0,1,179.8,31.6Z"/><path class="cls-2" d="M191.2,62.6c-2.1,15.9-14.8,26.5-30.9,26.5-15,0-27.2-10.7-30.1-25.3a107.62,107.62,0,0,0,12.7-4.9c.7,11.1,7.5,18.6,17.5,18.6,8.7,0,15.5-6.1,17-14.9Z"/><path class="cls-2" d="M191.2,51.7H177.5A17.77,17.77,0,0,0,171,40.4a121.76,121.76,0,0,0,8.8-8.8A30,30,0,0,1,191.2,51.7Z"/><path class="cls-2" d="M219.3,41.4c-13.2,0-23.1,10.3-23.1,23.6s9.9,23.6,23.1,23.6S242.4,78.2,242.4,65,232.4,41.4,219.3,41.4Zm0,36.8c-6,0-10.9-4.7-10.9-13.1s5-13.1,10.9-13.1,10.8,4.6,10.8,13.1S225.2,78.2,219.3,78.2Z"/><path class="cls-2" d="M261.8,26.6V67.2a160.17,160.17,0,0,1-11.9,11.4v-52Z"/><path class="cls-3" d="M261.8,67.1V87.8H250V78.5A158.76,158.76,0,0,0,261.8,67.1Z"/><path class="cls-3" d="M373.4,26.6V67.9a196,196,0,0,1-11.9,18.2V26.6Z"/><path class="cls-4" d="M373.4,67.8v20H361.5V86A203.31,203.31,0,0,0,373.4,67.8Z"/><path class="cls-2" d="M278.8,45.8q-3.75,5.7-8.1,11.1A22.87,22.87,0,0,1,278.8,45.8Z"/><path class="cls-3" d="M292.5,41.4a22.87,22.87,0,0,0-13.7,4.4h0q-3.75,5.7-8.1,11.1a24.31,24.31,0,0,0-1.3,8.2c0,13.2,9.9,23.6,23.1,23.6s23.1-10.4,23.1-23.6C315.6,51.7,305.7,41.4,292.5,41.4Zm0,36.8c-6,0-10.9-4.7-10.9-13.1s5-13.1,10.9-13.1,10.8,4.6,10.8,13.1S298.4,78.2,292.5,78.2Z"/><path class="cls-3" d="M351.5,42.1V54c-10.1-.9-16.9,1.6-16.9,11.7V87.8H322.8V42.3h10.8V51A18.57,18.57,0,0,1,351.5,42.1Z"/><path class="cls-4" d="M427.3,42.3l-22.3,62H392.2l6.4-17L383.3,48.6l2.7-6.3h7.6l11.3,31.2,10.5-31.2Z"/><path class="cls-3" d="M386,42.3l-2.7,6.3-2.5-6.3Z"/><path class="cls-5" d="M46.7,113a55,55,0,0,1-19.1-7.1,51.45,51.45,0,0,0,9.7,1c1.1,0,2.2,0,3.2-.1Z"/><path class="cls-6" d="M84.4,106a55.63,55.63,0,0,1-28.3,7.8,57.68,57.68,0,0,1-9.4-.8c-2.1-2-4.1-4.1-6.2-6.2a49.84,49.84,0,0,0,26-9.3A195.28,195.28,0,0,0,84.4,106Z"/><path class="cls-7" d="M110.7,69.7a56.84,56.84,0,0,1-26.3,36.2,163.62,163.62,0,0,1-17.9-8.6,50.3,50.3,0,0,0,19-27.6Z"/><path class="cls-8" d="M72.3,44h0a19.35,19.35,0,0,0-33.4,9.4h0A112.17,112.17,0,0,1,11.2,30.2a36.91,36.91,0,0,1,26-10.6A37.31,37.31,0,0,1,72.3,44Z"/><path class="cls-7" d="M72.3,69.7A36.85,36.85,0,0,1,54.5,89.9a162.24,162.24,0,0,1-49-52.6,39.25,39.25,0,0,1,5.7-7.2A112.52,112.52,0,0,0,38.9,53.3a19.83,19.83,0,0,0-.3,3.5A19.25,19.25,0,0,0,57.9,76.1a18.86,18.86,0,0,0,14.4-6.4Z"/><path class="cls-6" d="M54.5,90a37.06,37.06,0,0,1-17.2,4.2,34.11,34.11,0,0,1-8.5-1h0A208.92,208.92,0,0,1,1.1,47.7h0A35.42,35.42,0,0,1,5.5,37.3,161.57,161.57,0,0,0,54.5,90Z"/><path class="cls-5" d="M28.8,93.2A37.28,37.28,0,0,1,0,57.1v-.5a36.77,36.77,0,0,1,1.1-8.9A208.92,208.92,0,0,0,28.8,93.2Z"/><path class="cls-8" d="M110.7,44H85.6A50.13,50.13,0,0,0,37.3,6.9a44.35,44.35,0,0,0-9.7,1A55.19,55.19,0,0,1,56.1,0C82.7,0,105,18.8,110.7,44Z"/></svg>