<svg id="Layer_1" data-name="Layer 1" xmlns="http://www.w3.org/2000/svg" xmlns:xlink="http://www.w3.org/1999/xlink" viewBox="0 0 1415.01 373.4"><defs><style>.cls-1{fill:none;}.cls-2{clip-path:url(#clip-path);}.cls-3{fill:#0ac9f8;}.cls-4{fill:#23b3f1;}.cls-5{fill:#3c9cea;}.cls-6{fill:#5586e3;}.cls-7{fill:#6e70dc;}.cls-8{fill:#8759d6;}.cls-9{fill:#a043cf;}.cls-10{fill:#b92dc8;}.cls-11{fill:#d216c1;}.cls-12{fill:#eb00ba;}.cls-13{fill:#ec18ac;}.cls-14{fill:#ec2f9e;}.cls-15{fill:#ed478f;}.cls-16{fill:#ed5e81;}.cls-17{fill:#ee7673;}.cls-18{fill:#ee8d65;}.cls-19{fill:#efa556;}.cls-20{fill:#efbc48;}.cls-21{fill:#f0d43a;}.cls-22{fill:#f0c23d;}.cls-23{fill:#f0b140;}.cls-24{fill:#f19f44;}.cls-25{fill:#f18d47;}.cls-26{fill:#f17c4a;}.cls-27{fill:#f16a4d;}.cls-28{fill:#f25851;}.cls-29{fill:#f24754;}.cls-30{fill:#f23557;}.cls-31{fill:#df3867;}.cls-32{fill:#cd3a77;}.cls-33{fill:#ba3d87;}.cls-34{fill:#a74097;}.cls-35{fill:#9542a7;}.cls-36{fill:#8245b7;}.cls-37{fill:#6f48c7;}.cls-38{fill:#5d4ad7;}.cls-39{fill:#4a4de7;}</style><clipPath id="clip-path"><path class="cls-1" d="M130.72,279.81c16.93,0,26.65-8.29,32.06-23.06h65.56c-21,112.76-205.49,93.9-197.41-27.73C22.79,108.2,207.68,87.42,228.34,201.27H162.78c-5.05-14-15.13-23.05-32.06-23.05C81.21,174.39,81.2,283.63,130.72,279.81Zm221.9,52.59c-138.17,3.13-137-210.22.72-206.78C492.23,122.63,491.38,335.75,352.62,332.4Zm.72-153.46c-54.88-3.65-55.69,103.16-.72,100.15C408.48,282,408.87,176.21,353.34,178.94ZM490.58,329.52h61.61V62.94H490.58Zm197.78,2.88c-138.17,3.13-137-210.22.71-206.78C828,122.63,827.12,335.75,688.36,332.4Zm.72-153.46c-54.89-3.65-55.7,103.16-.73,100.15C744.21,282,744.61,176.21,689.08,178.94ZM887.92,162v-33.5h-61.6v201h61.6v-93.3c-1.56-43.38,30.34-46.27,63-44.67V126.34C924,126.34,902,140.75,887.92,162Zm121.4,103.39c-48.17-.65-48.88,67.52,0,67C1057.68,332.86,1057,264.79,1009.32,265.4Zm72.76,64.12h61.6v-201h-61.6Zm31-288.56c-48.33-.55-48.69,67.14,0,66.65C1161.24,108,1160.88,40.46,1113.06,41Zm166.8,291.44c-138.17,3.13-136.95-210.22.71-206.78C1419.47,122.63,1418.62,335.75,1279.86,332.4Zm.72-153.46c-54.89-3.65-55.7,103.16-.73,100.15C1335.71,282,1336.11,176.21,1280.58,178.94Z"/></clipPath></defs><g class="cls-2"><rect class="cls-3" x="-13.55" y="-171.76" width="339.76" height="760.09"/><rect class="cls-4" x="24.2" y="-171.76" width="339.76" height="760.09"/><rect class="cls-5" x="61.95" y="-171.76" width="339.76" height="760.09"/><rect class="cls-6" x="99.7" y="-171.76" width="339.76" height="760.09"/><rect class="cls-7" x="137.45" y="-171.76" width="339.76" height="760.09"/><rect class="cls-8" x="175.2" y="-171.76" width="339.76" height="760.09"/><rect class="cls-9" x="212.95" y="-171.76" width="339.76" height="760.09"/><rect class="cls-10" x="250.7" y="-171.76" width="339.76" height="760.09"/><rect class="cls-11" x="288.45" y="-171.76" width="339.76" height="760.09"/><rect class="cls-12" x="326.21" y="-171.76" width="339.76" height="760.09"/><rect class="cls-13" x="363.96" y="-171.76" width="339.76" height="760.09"/><rect class="cls-14" x="401.71" y="-171.76" width="339.76" height="760.09"/><rect class="cls-15" x="439.46" y="-171.76" width="339.76" height="760.09"/><rect class="cls-16" x="477.21" y="-171.76" width="339.76" height="760.09"/><rect class="cls-17" x="514.96" y="-171.76" width="339.76" height="760.09"/><rect class="cls-18" x="552.71" y="-171.76" width="339.76" height="760.09"/><rect class="cls-19" x="590.46" y="-171.76" width="339.76" height="760.09"/><rect class="cls-20" x="628.21" y="-171.76" width="339.76" height="760.09"/><rect class="cls-21" x="665.96" y="-171.76" width="339.76" height="760.09"/><rect class="cls-22" x="703.72" y="-171.76" width="339.76" height="760.09"/><rect class="cls-23" x="741.47" y="-171.76" width="339.76" height="760.09"/><rect class="cls-24" x="779.22" y="-171.76" width="339.76" height="760.09"/><rect class="cls-25" x="816.97" y="-171.76" width="339.76" height="760.09"/><rect class="cls-26" x="854.72" y="-171.76" width="339.76" height="760.09"/><rect class="cls-27" x="892.47" y="-171.76" width="339.76" height="760.09"/><rect class="cls-28" x="930.22" y="-171.76" width="339.76" height="760.09"/><rect class="cls-29" x="967.97" y="-171.76" width="339.76" height="760.09"/><rect class="cls-30" x="1005.72" y="-171.76" width="339.76" height="760.09"/><rect class="cls-31" x="1043.47" y="-171.76" width="339.76" height="760.09"/><rect class="cls-32" x="1081.22" y="-171.76" width="339.76" height="760.09"/><rect class="cls-33" x="1118.98" y="-171.76" width="339.76" height="760.09"/><rect class="cls-34" x="1156.73" y="-171.76" width="339.76" height="760.09"/><rect class="cls-35" x="1194.48" y="-171.76" width="339.76" height="760.09"/><rect class="cls-36" x="1232.23" y="-171.76" width="339.76" height="760.09"/><rect class="cls-37" x="1269.98" y="-171.76" width="339.76" height="760.09"/><rect class="cls-38" x="1307.73" y="-171.76" width="339.76" height="760.09"/><rect class="cls-39" x="1345.48" y="-171.76" width="339.76" height="760.09"/></g></svg>
